<svg xmlns="http://www.w3.org/2000/svg" version="1.1" xmlns:xlink="http://www.w3.org/1999/xlink" xmlns:svgjs="http://svgjs.dev/svgjs" width="1920" height="1080" preserveAspectRatio="none" viewBox="0 0 1920 1080"><g mask="url(&quot;#SvgjsMask1045&quot;)" fill="none"><rect width="1920" height="1080" x="0" y="0" fill="rgba(43, 43, 43, 1)"></rect><path d="M12 1080L1092 0L1861.5 0L781.5 1080z" fill="url(&quot;#SvgjsLinearGradient1046&quot;)"></path><path d="M634.6 1080L1714.6 0L2413.6 0L1333.6 1080z" fill="url(&quot;#SvgjsLinearGradient1046&quot;)"></path><path d="M1899 1080L819 0L547.5 0L1627.5 1080z" fill="url(&quot;#SvgjsLinearGradient1047&quot;)"></path><path d="M1260.4 1080L180.4000000000001 0L-331.0999999999999 0L748.9000000000001 1080z" fill="url(&quot;#SvgjsLinearGradient1047&quot;)"></path><path d="M947.3796360620535 1080L1920 107.37963606205346L1920 1080z" fill="url(&quot;#SvgjsLinearGradient1046&quot;)"></path><path d="M0 1080L972.6203639379465 1080L 0 107.37963606205346z" fill="url(&quot;#SvgjsLinearGradient1047&quot;)"></path></g><defs><mask id="SvgjsMask1045"><rect width="1920" height="1080" fill="#ffffff"></rect></mask><linearGradient x1="0%" y1="100%" x2="100%" y2="0%" id="SvgjsLinearGradient1046"><stop stop-color="rgba(185, 144, 15, 0.2)" offset="0"></stop><stop stop-opacity="0" stop-color="rgba(185, 144, 15, 0.2)" offset="0.66"></stop></linearGradient><linearGradient x1="100%" y1="100%" x2="0%" y2="0%" id="SvgjsLinearGradient1047"><stop stop-color="rgba(185, 144, 15, 0.2)" offset="0"></stop><stop stop-opacity="0" stop-color="rgba(185, 144, 15, 0.2)" offset="0.66"></stop></linearGradient></defs></svg>